<svg viewBox="0 0 35.87 35.88" xmlns="http://www.w3.org/2000/svg" data-name="Layer 1" id="Layer_1"><defs><style>.cls-1{fill:#6a6c79;}</style></defs><path transform="translate(-2.1 -2.32)" d="M38,20.24A17.94,17.94,0,1,1,20.22,2.33,17.93,17.93,0,0,1,38,20.24ZM4,20.22a16,16,0,1,0,16-16A16,16,0,0,0,4,20.22Z" class="cls-1"></path><path transform="translate(-2.1 -2.32)" d="M25,7.72a.87.87,0,0,1-.32.61l-5,4.48c-.37.32-.74.65-1.09,1-.18.16-.32.18-.5,0l-2.71-2.72a1.09,1.09,0,0,1-.36-.7.94.94,0,0,1,1.62-.75c.5.49,1,1,1.48,1.49.22.24.36.21.59,0Q21.07,9,23.41,6.93a.92.92,0,0,1,1.07-.2A1,1,0,0,1,25,7.72Z" class="cls-1"></path><path transform="translate(-2.1 -2.32)" d="M23.5,18.7a4,4,0,0,1-.4,1.75,2.36,2.36,0,0,1-2.16,1.32,2.25,2.25,0,0,1-2.19-1.25,3.84,3.84,0,0,1,0-3.73,2.27,2.27,0,0,1,2.32-1.24,2.38,2.38,0,0,1,2.15,1.58A4,4,0,0,1,23.5,18.7Zm-1.51,0a2.8,2.8,0,0,0-.17-1.18.94.94,0,0,0-.94-.68.91.91,0,0,0-.91.69,3.46,3.46,0,0,0,0,2.31,1,1,0,0,0,1.87,0A2.77,2.77,0,0,0,22,18.67Z" class="cls-1"></path><path transform="translate(-2.1 -2.32)" d="M17.73,18.62a3.68,3.68,0,0,1-.39,1.84A2.38,2.38,0,0,1,15,21.77a2.27,2.27,0,0,1-2.13-1.45,4,4,0,0,1,.06-3.44,2.27,2.27,0,0,1,2.33-1.33A2.37,2.37,0,0,1,17.42,17,3.71,3.71,0,0,1,17.73,18.62Zm-3.71,0a2.43,2.43,0,0,0,.37,1.49.91.91,0,0,0,1.4.1A1.79,1.79,0,0,0,16.23,19,2.88,2.88,0,0,0,16,17.32a.93.93,0,0,0-1.67,0A2.48,2.48,0,0,0,14,18.65Z" class="cls-1"></path><path transform="translate(-2.1 -2.32)" d="M11.61,18.65c0,.86,0,1.73,0,2.6,0,.31-.1.45-.42.42a4.33,4.33,0,0,0-.72,0c-.28,0-.37-.1-.37-.37,0-.92,0-1.84,0-2.76,0-.47,0-.95,0-1.42,0-.21-.08-.31-.3-.29H9.16c-.16,0-.23-.05-.22-.22a4.33,4.33,0,0,0,0-.72c0-.21.07-.25.25-.25h2.07c.27,0,.35.11.35.36C11.61,16.89,11.61,17.77,11.61,18.65Z" class="cls-1"></path><path transform="translate(-2.1 -2.32)" d="M19.65,32.09A14.41,14.41,0,0,1,14.28,31c-.24-.1-.28-.21-.15-.42s.08-.5.48-.34a12.93,12.93,0,0,0,5.82,1,13.2,13.2,0,0,0,5-1.25c.11,0,.25-.19.37,0a1,1,0,0,1,.27.58c0,.1-.13.14-.21.18A14,14,0,0,1,21.54,32,16.81,16.81,0,0,1,19.65,32.09Z" class="cls-1"></path><path transform="translate(-2.1 -2.32)" d="M25.31,21.77c-.1,0-.39.12-.49-.06s.15-.36.26-.52l3.68-5.4a.51.51,0,0,1,.49-.26c.25,0,.5,0,.75,0,.07,0,.16,0,.2.05s0,.17-.08.25l-1.67,2.43c-.72,1.06-1.46,2.1-2.15,3.17C26.06,21.82,25.75,21.79,25.31,21.77Z" class="cls-1"></path><path transform="translate(-2.1 -2.32)" d="M31.14,20.17c0,.13,0,.29-.06.44a1.55,1.55,0,0,1-1.53,1.24A1.52,1.52,0,0,1,28,20.64,2,2,0,0,1,28.19,19a1.5,1.5,0,0,1,1.55-.67A1.47,1.47,0,0,1,31,19.4,1.94,1.94,0,0,1,31.14,20.17ZM30,20a2.2,2.2,0,0,0,0-.35.41.41,0,0,0-.8,0,1.21,1.21,0,0,0,0,.88.42.42,0,0,0,.39.32c.21,0,.31-.13.39-.3A1.36,1.36,0,0,0,30,20Z" class="cls-1"></path><path transform="translate(-2.1 -2.32)" d="M27.1,17.27A1.62,1.62,0,0,1,24.93,19a1.76,1.76,0,0,1-1.05-2.05,1.56,1.56,0,0,1,1.59-1.44A1.61,1.61,0,0,1,27.1,17.27Zm-2.08,0a1,1,0,0,0,.07.44.44.44,0,0,0,.38.33c.21,0,.32-.13.39-.31a1.33,1.33,0,0,0,0-1,.38.38,0,0,0-.37-.24.36.36,0,0,0-.35.22A1.09,1.09,0,0,0,25,17.26Z" class="cls-1"></path><path transform="translate(-2.1 -2.32)" d="M23.08,24.92v2.13c0,.2,0,.4-.28.4s-.31-.16-.31-.38V24.21c0-.13,0-.3.12-.36a.43.43,0,0,1,.49.12l1,1.25c.27.34.52.69.83,1,.11-.12.07-.24.07-.35V24.15c0-.22.08-.32.32-.32s.31.1.31.32c0,1,0,2,0,2.92,0,.14,0,.31-.16.36a.44.44,0,0,1-.48-.16c-.55-.71-1.12-1.4-1.69-2.1A2.74,2.74,0,0,0,23.08,24.92Z" class="cls-1"></path><path transform="translate(-2.1 -2.32)" d="M11.81,25.64V24.16c0-.24.09-.34.34-.33a9.08,9.08,0,0,1,1.65.07,1.11,1.11,0,0,1,.94,1,1.14,1.14,0,0,1-.52,1.25c-.18.12-.16.21-.05.35s.36.49.53.74.08.22-.11.23-.46,0-.58-.26-.14-.17-.18-.26c-.23-.55-.68-.6-1.19-.55-.16,0-.22.07-.21.23s0,.33,0,.5-.07.35-.33.35-.29-.13-.29-.34Zm.62-.58c0,.9-.12.78.81.79a1.34,1.34,0,0,0,.52-.1.66.66,0,0,0,.4-.62.68.68,0,0,0-.33-.64,1.3,1.3,0,0,0-.67-.13C12.43,24.36,12.43,24.35,12.43,25.06Z" class="cls-1"></path><path transform="translate(-2.1 -2.32)" d="M11.13,25.63a1.81,1.81,0,0,1-1.9,1.86,1.86,1.86,0,1,1,0-3.71A1.82,1.82,0,0,1,11.13,25.63ZM9.26,24.35a1.24,1.24,0,0,0-1.35,1.28,1.25,1.25,0,0,0,1.31,1.3,1.26,1.26,0,0,0,1.32-1.29A1.24,1.24,0,0,0,9.26,24.35Z" class="cls-1"></path><path transform="translate(-2.1 -2.32)" d="M20.06,26.32v.07c0,.72-.14.89-.86,1a1.93,1.93,0,0,1-2.37-1.27A1.88,1.88,0,0,1,19,23.8a1.67,1.67,0,0,1,1,.39c.09.08.21.17.07.3s-.2.29-.41.13a1.42,1.42,0,0,0-1.43-.17,1.29,1.29,0,0,0,.36,2.47h.31c.56,0,.66-.12.66-.67v-.34c0-.19,0-.35.27-.34s.33.12.31.35S20.06,26.19,20.06,26.32Z" class="cls-1"></path><path transform="translate(-2.1 -2.32)" d="M28,23.84a.31.31,0,0,1,.36.21c.47,1.05,1,2.09,1.43,3.14,0,.09.09.21,0,.23s-.41.1-.54-.13a4.67,4.67,0,0,1-.23-.51.33.33,0,0,0-.34-.22q-.66,0-1.32,0a.34.34,0,0,0-.36.24c-.06.16-.13.31-.2.46s-.35.2-.55.16-.08-.16,0-.24L27.57,24A.33.33,0,0,1,28,23.84Zm0,.68c-.24.52-.43.95-.62,1.38-.06.13,0,.16.13.16h1.17Z" class="cls-1"></path><path transform="translate(-2.1 -2.32)" d="M30.28,25.63c0-.48,0-1,0-1.44,0-.25.07-.37.34-.36s.26.15.26.35c0,.79,0,1.58,0,2.38,0,.28.09.37.36.36s.82,0,1.22,0c.21,0,.35.05.35.29s-.19.24-.36.24c-.6,0-1.21,0-1.81,0-.26,0-.36-.09-.36-.35C30.29,26.61,30.28,26.12,30.28,25.63Z" class="cls-1"></path><path transform="translate(-2.1 -2.32)" d="M20.92,25.62c0-.49,0-1,0-1.48,0-.22.08-.31.32-.31s.31.1.31.32c0,1,0,2,0,3,0,.23-.09.32-.32.32s-.31-.1-.31-.32C20.93,26.62,20.92,26.12,20.92,25.62Z" class="cls-1"></path><path transform="translate(-2.1 -2.32)" d="M15.49,25.62c0-.5,0-1,0-1.5,0-.19,0-.29.25-.29s.35,0,.35.28c0,1,0,2,0,3,0,.24-.12.29-.34.3s-.26-.13-.26-.32c0-.5,0-1,0-1.51Z" class="cls-1"></path></svg>