<svg xml:space="preserve" style="enable-background:new 0 0 40 40;" viewBox="0 0 40 40" y="0px" x="0px" xmlns:xlink="http://www.w3.org/1999/xlink" xmlns="http://www.w3.org/2000/svg" id="Layer_1" version="1.1">
<style type="text/css">
	.st0{fill:#696C79;}
	.st1{display:none;}
	.st2{display:inline;}
</style>
<g>
	<g>
		<path d="M3.75,27.47c0.32-1.41-0.38-2.71-1.43-3.98c-2.09-2.55-2.11-4.03-0.01-6.56c1.09-1.31,1.53-2.67,1.46-4.37
			C3.64,8.98,4.42,7.98,7.87,7.1c1.49-0.38,2.64-1.08,3.37-2.46c0.19-0.37,0.46-0.7,0.7-1.03c1.24-1.67,2.66-2.32,4.55-1.54
			c2.4,0.99,4.6,0.98,7-0.01c1.84-0.76,3.27-0.12,4.48,1.48c0.32,0.42,0.64,0.86,0.9,1.32c0.66,1.16,1.61,1.88,2.93,2.14
			c0.48,0.09,0.95,0.26,1.42,0.42c2.13,0.72,2.99,1.91,3.01,4.15c0.01,0.53,0.04,1.07-0.02,1.59c-0.15,1.3,0.26,2.38,1.14,3.33
			c0.26,0.28,0.48,0.59,0.7,0.9c1.51,2.05,1.64,3.66-0.02,5.58c-1.46,1.68-1.97,3.44-1.84,5.61c0.15,2.57-0.75,3.83-3.29,4.45
			c-2.14,0.53-3.61,1.62-4.75,3.51c-1.25,2.08-2.78,2.47-5.08,1.73c-0.54-0.17-1.08-0.35-1.61-0.57c-1-0.42-1.99-0.42-2.98,0.01
			c-0.07,0.03-0.14,0.05-0.21,0.08c-4.05,1.42-4.94,1.14-7.27-2.41c-0.66-1.01-1.48-1.71-2.68-1.93c-0.15-0.03-0.29-0.09-0.44-0.13
			C4.35,32.31,3.7,31.45,3.75,27.47z M5.93,27.14c-0.02,3.37-0.04,3.44,2.92,4.16c2.15,0.52,3.42,1.94,4.51,3.71
			c0.92,1.5,1.53,1.75,3.13,1.06c2.34-1,4.57-1.06,6.92-0.02c1.65,0.73,2.31,0.49,3.21-1.09c1.21-2.13,2.93-3.37,5.31-3.9
			c1.94-0.43,2.23-0.84,2.08-2.88c-0.18-2.42,0.43-4.44,2.08-6.26c1.29-1.42,1.28-2.04,0-3.47c-1.61-1.79-2.25-3.76-2.08-6.14
			c0.16-2.2-0.11-2.54-2.31-3.06c-2.17-0.51-3.75-1.64-4.9-3.56c-1.19-1.98-1.6-2.13-3.71-1.25c-2.09,0.87-4.06,0.9-6.16,0.03
			c-2.19-0.91-2.56-0.77-3.8,1.26c-1.11,1.83-2.59,2.98-4.7,3.45c-2.34,0.52-2.61,0.88-2.48,3.28c0.12,2.16-0.38,3.99-1.83,5.66
			c-1.6,1.84-1.57,2.3,0.05,4.2C5.45,23.84,6.23,25.43,5.93,27.14z" class="st0"></path>
		<path d="M19.96,30.76c-5.45,0-10.16-4.29-10.51-9.56c-0.38-5.8,3.54-10.78,9.07-11.51c1.33-0.18,1.62,0.1,1.56,1.31
			c-0.04,0.76-0.51,0.78-1.07,0.85c-6.26,0.78-9.48,7.8-5.98,13.01c1.88,2.8,5.37,4.27,8.51,3.57c3.75-0.83,6.24-3.45,6.8-7.19
			c0.08-0.52,0-1.06,0.79-1.13c1.22-0.11,1.56,0.21,1.38,1.49C29.75,26.88,25.28,30.76,19.96,30.76z" class="st0"></path>
		<path d="M16.87,17.63c0.46,0.12,0.7,0.49,0.99,0.78c2.08,2.06,2.07,2.05,3.91-0.27c1.46-1.84,2.96-3.66,4.4-5.52
			c0.49-0.64,0.88-0.65,1.48-0.17c0.62,0.49,0.79,0.88,0.23,1.57c-2.42,2.97-4.81,5.97-7.19,8.98c-0.45,0.56-0.77,0.58-1.26,0.07
			c-1.13-1.18-2.31-2.31-3.45-3.47c-0.23-0.23-0.61-0.47-0.33-0.85C15.97,18.28,16.32,17.83,16.87,17.63z" class="st0"></path>
	</g>
</g>
<g class="st1">
	<g class="st2">
		<path d="M37.97,20.24c0.06,9.89-8.08,18.05-18.11,17.96C10.1,38.12,1.98,30.07,2.1,20.03c0.11-9.72,8.12-17.8,18.12-17.71
			C30.03,2.42,38.01,10.46,37.97,20.24z M4.02,20.22c0,8.89,7.15,16.06,16.03,16.07c8.84,0,16.01-7.17,16.02-16.01
			c0.01-8.86-7.17-16.03-16.03-16.04C11.22,4.24,4.02,11.42,4.02,20.22z"></path>
		<path d="M25.03,7.72c0,0.17-0.1,0.42-0.32,0.61c-1.67,1.49-3.34,2.99-5,4.48c-0.37,0.33-0.73,0.66-1.09,0.99
			c-0.18,0.17-0.31,0.18-0.5-0.01c-0.89-0.91-1.8-1.81-2.7-2.71c-0.2-0.2-0.35-0.41-0.36-0.71c-0.02-0.41,0.18-0.78,0.51-0.93
			c0.38-0.18,0.8-0.11,1.1,0.19c0.5,0.49,1.01,0.98,1.48,1.49c0.22,0.24,0.36,0.21,0.58,0c1.55-1.4,3.11-2.8,4.67-4.19
			c0.31-0.28,0.68-0.38,1.07-0.2C24.85,6.89,25.03,7.2,25.03,7.72z"></path>
		<path d="M23.5,18.7c-0.02,0.56-0.1,1.18-0.41,1.75c-0.46,0.87-1.19,1.3-2.16,1.32c-0.97,0.02-1.74-0.39-2.19-1.25
			c-0.64-1.23-0.64-2.5,0-3.73c0.48-0.92,1.3-1.31,2.32-1.24c1.04,0.07,1.75,0.63,2.15,1.58C23.42,17.61,23.5,18.11,23.5,18.7z
			 M21.99,18.67c0.01-0.4-0.01-0.8-0.16-1.17c-0.2-0.48-0.49-0.69-0.94-0.69c-0.48,0-0.77,0.29-0.91,0.69
			c-0.27,0.76-0.27,1.54-0.01,2.31c0.16,0.46,0.51,0.7,0.94,0.71c0.44,0,0.74-0.23,0.94-0.7C21.98,19.44,22,19.06,21.99,18.67z"></path>
		<path d="M17.73,18.62c0.01,0.67-0.09,1.28-0.39,1.84c-0.5,0.92-1.29,1.36-2.32,1.32c-1-0.04-1.74-0.54-2.14-1.45
			c-0.49-1.14-0.5-2.31,0.06-3.44c0.47-0.95,1.29-1.39,2.34-1.33c1.01,0.05,1.73,0.57,2.15,1.49C17.65,17.56,17.74,18.1,17.73,18.62
			z M14.02,18.65c0.01,0.53,0.04,1.05,0.38,1.49c0.35,0.47,0.99,0.51,1.4,0.1c0.34-0.34,0.4-0.77,0.44-1.21
			c0.05-0.59,0.05-1.18-0.25-1.71c-0.4-0.7-1.26-0.7-1.67-0.01C14.06,17.72,14.01,18.18,14.02,18.65z"></path>
		<path d="M11.61,18.65c0,0.87-0.01,1.74,0,2.61c0,0.31-0.1,0.44-0.42,0.42c-0.24-0.02-0.48-0.02-0.72,0
			c-0.28,0.02-0.37-0.1-0.37-0.37c0.01-0.92,0-1.84,0-2.76c0-0.47,0-0.94,0-1.41c0-0.21-0.08-0.31-0.3-0.3
			c-0.22,0.01-0.44,0-0.66,0.01C9,16.84,8.93,16.79,8.94,16.62c0.01-0.24,0.02-0.48,0.01-0.72c-0.01-0.21,0.07-0.25,0.25-0.24
			c0.69,0.01,1.38,0.01,2.07,0c0.27-0.01,0.34,0.11,0.34,0.36C11.61,16.89,11.61,17.77,11.61,18.65z"></path>
		<path d="M19.65,32.09c-1.85-0.03-3.64-0.38-5.37-1.11c-0.24-0.1-0.28-0.22-0.15-0.42c0.11-0.18,0.08-0.5,0.48-0.34
			c1.86,0.79,3.81,1.13,5.83,1.02c1.73-0.09,3.39-0.51,4.96-1.25c0.12-0.05,0.25-0.19,0.37-0.05c0.14,0.16,0.27,0.36,0.27,0.59
			c0,0.1-0.12,0.13-0.21,0.17c-1.36,0.65-2.79,1.08-4.29,1.27C20.92,32.04,20.29,32.08,19.65,32.09z"></path>
		<path d="M25.31,21.77c-0.1-0.02-0.39,0.12-0.49-0.06c-0.12-0.19,0.15-0.36,0.26-0.52c1.22-1.8,2.45-3.6,3.68-5.4
			c0.12-0.18,0.27-0.28,0.49-0.26c0.25,0.02,0.5,0,0.75,0c0.07,0,0.16-0.02,0.2,0.05c0.06,0.1-0.04,0.18-0.09,0.25
			c-0.55,0.81-1.11,1.63-1.67,2.44c-0.72,1.05-1.46,2.09-2.15,3.17C26.06,21.82,25.75,21.79,25.31,21.77z"></path>
		<path d="M31.14,20.17c-0.02,0.12-0.02,0.28-0.06,0.43c-0.18,0.76-0.77,1.23-1.53,1.24c-0.8,0.01-1.38-0.43-1.58-1.21
			c-0.15-0.59-0.12-1.18,0.22-1.69c0.36-0.55,0.92-0.75,1.56-0.67c0.66,0.09,1.1,0.47,1.3,1.12C31.12,19.64,31.16,19.89,31.14,20.17
			z M29.97,19.98c-0.01-0.06-0.01-0.21-0.05-0.35c-0.06-0.18-0.17-0.35-0.39-0.35c-0.22,0-0.34,0.14-0.41,0.33
			c-0.11,0.3-0.1,0.6,0,0.89c0.06,0.18,0.18,0.3,0.39,0.32c0.21,0.01,0.32-0.13,0.39-0.3C29.97,20.38,29.96,20.22,29.97,19.98z"></path>
		<path d="M27.1,17.27c0,1.29-1,2.08-2.16,1.7c-0.77-0.26-1.2-1.09-1.05-2.05c0.14-0.89,0.74-1.43,1.59-1.44
			C26.46,15.47,27.1,16.18,27.1,17.27z M25.02,17.26c-0.01,0.15,0.01,0.3,0.07,0.45c0.07,0.18,0.18,0.32,0.38,0.33
			c0.21,0.01,0.33-0.14,0.39-0.31c0.12-0.33,0.11-0.66-0.02-0.98c-0.07-0.16-0.19-0.24-0.37-0.24c-0.17,0-0.28,0.08-0.35,0.22
			C25.04,16.89,25.01,17.06,25.02,17.26z"></path>
		<path d="M23.08,24.92c0,0.78,0,1.46,0,2.14c0,0.2,0.04,0.4-0.28,0.4c-0.29,0-0.32-0.16-0.31-0.38c0-0.95,0-1.91,0-2.86
			c0-0.13-0.04-0.3,0.12-0.35c0.17-0.06,0.35-0.04,0.49,0.12c0.34,0.41,0.67,0.83,1.01,1.24c0.27,0.34,0.52,0.69,0.84,1.01
			c0.11-0.12,0.07-0.24,0.07-0.35c0-0.58,0.01-1.15,0-1.73c0-0.22,0.08-0.32,0.31-0.32c0.24,0,0.31,0.1,0.31,0.32
			c-0.01,0.97,0,1.95,0,2.92c0,0.14,0.04,0.32-0.17,0.36c-0.18,0.04-0.34,0.01-0.47-0.16c-0.56-0.71-1.13-1.4-1.69-2.1
			C23.25,25.1,23.2,25.05,23.08,24.92z"></path>
		<path d="M11.81,25.64c0-0.49,0-0.98,0-1.48c0-0.24,0.1-0.34,0.34-0.33c0.55,0.03,1.11-0.06,1.66,0.07
			c0.52,0.12,0.85,0.45,0.94,0.98c0.08,0.51-0.06,0.96-0.52,1.25c-0.18,0.11-0.16,0.2-0.05,0.34c0.18,0.24,0.36,0.49,0.53,0.74
			c0.11,0.15,0.08,0.22-0.12,0.24c-0.24,0.02-0.46-0.01-0.58-0.27c-0.04-0.09-0.14-0.16-0.18-0.26c-0.23-0.55-0.68-0.6-1.19-0.55
			c-0.16,0.02-0.22,0.07-0.21,0.23c0.01,0.17,0,0.33,0,0.5c0.01,0.23-0.07,0.35-0.33,0.35c-0.25,0-0.3-0.13-0.3-0.34
			C11.81,26.62,11.81,26.13,11.81,25.64z M12.43,25.06c0.01,0.9-0.13,0.78,0.81,0.79c0.18,0,0.35-0.02,0.52-0.1
			c0.27-0.12,0.39-0.35,0.4-0.62c0.01-0.26-0.09-0.49-0.33-0.63c-0.21-0.12-0.43-0.14-0.67-0.14
			C12.43,24.36,12.43,24.35,12.43,25.06z"></path>
		<path d="M11.13,25.63c0,1.07-0.8,1.86-1.91,1.86c-1.1,0-1.94-0.81-1.94-1.88c0-1.02,0.85-1.82,1.93-1.83
			C10.31,23.77,11.13,24.56,11.13,25.63z M9.26,24.35c-0.8-0.01-1.34,0.51-1.35,1.29c0,0.76,0.53,1.29,1.31,1.29
			c0.77,0,1.32-0.54,1.32-1.29C10.54,24.89,10,24.35,9.26,24.35z"></path>
		<path d="M20.06,26.32c0,0.02,0,0.04,0,0.06c0,0.73-0.14,0.89-0.86,1.04c-1.12,0.23-2.11-0.3-2.37-1.27
			c-0.36-1.34,0.76-2.57,2.15-2.36c0.34,0.05,0.68,0.14,0.94,0.39c0.09,0.09,0.21,0.17,0.08,0.31c-0.11,0.11-0.21,0.28-0.41,0.13
			c-0.44-0.33-0.93-0.36-1.43-0.17c-0.56,0.21-0.88,0.8-0.79,1.39c0.09,0.58,0.55,1.02,1.14,1.08c0.1,0.01,0.21,0.01,0.31,0.01
			c0.56-0.02,0.65-0.13,0.65-0.67c0-0.12,0-0.23,0-0.35c0-0.19,0-0.35,0.28-0.34c0.27,0.01,0.32,0.13,0.31,0.35
			C20.05,26.05,20.06,26.19,20.06,26.32z"></path>
		<path d="M27.97,23.84c0.19-0.02,0.29,0.06,0.36,0.21c0.48,1.05,0.96,2.1,1.43,3.14c0.04,0.09,0.09,0.21-0.04,0.23
			c-0.19,0.03-0.41,0.1-0.54-0.13c-0.09-0.16-0.16-0.34-0.23-0.51c-0.06-0.16-0.17-0.22-0.34-0.22c-0.44,0.01-0.88,0.01-1.32,0
			c-0.19,0-0.29,0.07-0.36,0.24c-0.06,0.16-0.13,0.31-0.2,0.46c-0.12,0.26-0.35,0.2-0.55,0.16c-0.13-0.03-0.08-0.15-0.04-0.24
			c0.47-1.05,0.95-2.1,1.43-3.15C27.65,23.85,27.8,23.81,27.97,23.84z M27.95,24.52c-0.24,0.53-0.43,0.95-0.62,1.38
			c-0.06,0.13,0,0.17,0.13,0.17c0.37,0,0.75,0,1.17,0C28.4,25.54,28.2,25.07,27.95,24.52z"></path>
		<path d="M30.28,25.63c0-0.48,0.01-0.96,0-1.44c-0.01-0.24,0.06-0.37,0.33-0.36c0.27,0,0.26,0.16,0.26,0.35
			c-0.01,0.79,0.01,1.59-0.01,2.38c0,0.28,0.1,0.37,0.37,0.36c0.41-0.02,0.81,0,1.22-0.01c0.21,0,0.35,0.05,0.34,0.29
			c-0.01,0.25-0.18,0.24-0.35,0.24c-0.61,0-1.21-0.01-1.82,0c-0.25,0-0.36-0.08-0.35-0.34C30.29,26.61,30.28,26.12,30.28,25.63z"></path>
		<path d="M20.92,25.62c0-0.49,0-0.98,0-1.48c0-0.22,0.08-0.32,0.32-0.32c0.24,0,0.31,0.1,0.31,0.32c-0.01,0.99-0.01,1.99,0,2.98
			c0,0.23-0.08,0.32-0.32,0.32c-0.24,0-0.31-0.1-0.31-0.32C20.93,26.62,20.92,26.12,20.92,25.62z"></path>
		<path d="M15.49,25.62c0-0.5,0.01-1,0-1.5c0-0.2,0.05-0.29,0.26-0.29c0.21,0,0.34,0.03,0.34,0.28c-0.01,1.01-0.01,2.02,0,3.04
			c0,0.24-0.12,0.29-0.33,0.29c-0.24,0-0.27-0.12-0.26-0.32C15.5,26.63,15.49,26.13,15.49,25.62
			C15.49,25.62,15.49,25.62,15.49,25.62z"></path>
	</g>
</g>
</svg>
